<svg id="Group_3" data-name="Group 3" xmlns="http://www.w3.org/2000/svg" xmlns:xlink="http://www.w3.org/1999/xlink" width="412" height="412" viewBox="0 0 412 412">
  <defs>
    <linearGradient id="linear-gradient" x1="0.5" x2="0.5" y2="1" gradientUnits="objectBoundingBox">
      <stop offset="0" stop-opacity="0"/>
      <stop offset="0.498" stop-opacity="0.082"/>
      <stop offset="1" stop-opacity="0.537"/>
    </linearGradient>
    <radialGradient id="radial-gradient" cx="0.241" cy="-0.159" r="1.114" gradientTransform="translate(0 -0.005) scale(1 0.926)" gradientUnits="objectBoundingBox">
      <stop offset="0" stop-color="#fff" stop-opacity="0.435"/>
      <stop offset="0.498" stop-color="#fff" stop-opacity="0.082"/>
      <stop offset="1" stop-color="#fff" stop-opacity="0"/>
    </radialGradient>
    <filter id="Message-Bold-32px" x="50.938" y="61" width="310.125" height="310" filterUnits="userSpaceOnUse">
      <feOffset dy="10" input="SourceAlpha"/>
      <feGaussianBlur stdDeviation="10" result="blur"/>
      <feFlood flood-opacity="0.161"/>
      <feComposite operator="in" in2="blur"/>
      <feComposite in="SourceGraphic"/>
    </filter>
    <filter id="Message-Bold-32px-2" x="50.938" y="61" width="310.125" height="310" filterUnits="userSpaceOnUse">
      <feOffset dy="-20" input="SourceAlpha"/>
      <feGaussianBlur stdDeviation="30" result="blur-2"/>
      <feFlood flood-color="#7db927" flood-opacity="0.4" result="color"/>
      <feComposite operator="out" in="SourceGraphic" in2="blur-2"/>
      <feComposite operator="in" in="color"/>
      <feComposite operator="in" in2="SourceGraphic"/>
    </filter>
  </defs>
  <path id="Path_7" data-name="Path 7" d="M104,0H308A104,104,0,0,1,412,104V308A104,104,0,0,1,308,412H104A104,104,0,0,1,0,308V104A104,104,0,0,1,104,0Z" fill="#7db927"/>
  <path id="Path_19" data-name="Path 19" d="M104,0H308A104,104,0,0,1,412,104V308A104,104,0,0,1,308,412H104A104,104,0,0,1,0,308V104A104,104,0,0,1,104,0Z" fill="url(#linear-gradient)" style="mix-blend-mode: overlay;isolation: isolate"/>
  <path id="Path_20" data-name="Path 20" d="M104,0H308A104,104,0,0,1,412,104V308A104,104,0,0,1,308,412H104A104,104,0,0,1,0,308V104A104,104,0,0,1,104,0Z" fill="url(#radial-gradient)" style="mix-blend-mode: overlay;isolation: isolate"/>
  <g id="Path_8" data-name="Path 8" fill="none" style="mix-blend-mode: overlay;isolation: isolate">
    <path d="M104,0H308A104,104,0,0,1,412,104V308A104,104,0,0,1,308,412H104A104,104,0,0,1,0,308V104A104,104,0,0,1,104,0Z" stroke="none"/>
    <path d="M 104 5 C 97.27972412109375 5 90.56512451171875 5.676727294921875 84.04278564453125 7.011383056640625 C 77.688720703125 8.311614990234375 71.43865966796875 10.251708984375 65.46627807617188 12.77783203125 C 59.60116577148438 15.258544921875 53.94393920898438 18.32928466796875 48.65167236328125 21.9046630859375 C 43.4083251953125 25.44699096679688 38.47760009765625 29.51522827148438 33.99642944335938 33.99642944335938 C 29.51522827148438 38.47760009765625 25.44699096679688 43.4083251953125 21.9046630859375 48.65167236328125 C 18.32928466796875 53.94393920898438 15.258544921875 59.60116577148438 12.77783203125 65.46627807617188 C 10.251708984375 71.43865966796875 8.311614990234375 77.688720703125 7.011383056640625 84.04278564453125 C 5.676727294921875 90.56512451171875 5 97.27972412109375 5 104 L 5 308 C 5 314.7202758789062 5.676727294921875 321.4348754882812 7.011383056640625 327.9572143554688 C 8.311614990234375 334.311279296875 10.251708984375 340.5613403320312 12.77783203125 346.5337219238281 C 15.258544921875 352.3988342285156 18.32928466796875 358.0560607910156 21.9046630859375 363.3483276367188 C 25.44699096679688 368.5916748046875 29.51522827148438 373.5223999023438 33.99642944335938 378.0035400390625 C 38.47760009765625 382.4847717285156 43.4083251953125 386.5530090332031 48.65167236328125 390.0953369140625 C 53.94393920898438 393.6707153320312 59.60116577148438 396.741455078125 65.46627807617188 399.22216796875 C 71.43865966796875 401.748291015625 77.688720703125 403.6883850097656 84.04278564453125 404.9886169433594 C 90.56512451171875 406.3232727050781 97.27972412109375 407 104 407 L 308 407 C 314.7202758789062 407 321.4348754882812 406.3232727050781 327.9572143554688 404.9886169433594 C 334.311279296875 403.6883850097656 340.5613403320312 401.748291015625 346.5337219238281 399.22216796875 C 352.3988342285156 396.741455078125 358.0560607910156 393.6707153320312 363.3483276367188 390.0953369140625 C 368.5916748046875 386.5530090332031 373.5223999023438 382.4847717285156 378.0035400390625 378.0035400390625 C 382.4847717285156 373.5223999023438 386.5530090332031 368.5916748046875 390.0953369140625 363.3483276367188 C 393.6707153320312 358.0560607910156 396.741455078125 352.3988342285156 399.22216796875 346.5337219238281 C 401.748291015625 340.5613403320312 403.6883850097656 334.311279296875 404.9886169433594 327.9572143554688 C 406.3232727050781 321.4348754882812 407 314.7202758789062 407 308 L 407 104 C 407 97.27972412109375 406.3232727050781 90.56512451171875 404.9886169433594 84.04278564453125 C 403.6883850097656 77.688720703125 401.748291015625 71.43865966796875 399.22216796875 65.46627807617188 C 396.741455078125 59.60116577148438 393.6707153320312 53.94393920898438 390.0953369140625 48.65167236328125 C 386.5530090332031 43.4083251953125 382.4847717285156 38.47760009765625 378.0035400390625 33.99642944335938 C 373.5223999023438 29.51522827148438 368.5916748046875 25.44699096679688 363.3483276367188 21.9046630859375 C 358.0560607910156 18.32928466796875 352.3988342285156 15.258544921875 346.5337219238281 12.77783203125 C 340.5613403320312 10.251708984375 334.311279296875 8.311614990234375 327.9572143554688 7.011383056640625 C 321.4348754882812 5.676727294921875 314.7202758789062 5 308 5 L 104 5 M 104 0 L 308 0 C 365.4376220703125 0 412 46.5623779296875 412 104 L 412 308 C 412 365.4376220703125 365.4376220703125 412 308 412 L 104 412 C 46.5623779296875 412 0 365.4376220703125 0 308 L 0 104 C 0 46.5623779296875 46.5623779296875 0 104 0 Z" stroke="none" fill="rgba(0,0,0,0.18)"/>
  </g>
  <g data-type="innerShadowGroup">
    <g transform="matrix(1, 0, 0, 1, 0, 0)" filter="url(#Message-Bold-32px)">
      <path id="Message-Bold-32px-3" data-name="Message-Bold-32px" d="M189.594,2H64.531A62.421,62.421,0,0,0,2,64.281v87.294a62.421,62.421,0,0,0,62.531,62.281H83.291a14.375,14.375,0,0,1,10,5l18.759,24.887c8.254,11.005,21.761,11.005,30.015,0l18.759-24.887a12.678,12.678,0,0,1,10.005-5h18.759a62.421,62.421,0,0,0,62.531-62.281V64.281A62.421,62.421,0,0,0,189.594,2ZM77.038,127.063a12.506,12.506,0,1,1,12.506-12.506A12.463,12.463,0,0,1,77.038,127.063Zm50.025,0a12.506,12.506,0,1,1,12.506-12.506A12.463,12.463,0,0,1,127.063,127.063Zm50.025,0a12.506,12.506,0,1,1,12.506-12.506A12.463,12.463,0,0,1,177.088,127.063Z" transform="translate(78.94 79)" fill="#fff"/>
    </g>
    <g transform="matrix(1, 0, 0, 1, 0, 0)" filter="url(#Message-Bold-32px-2)">
      <path id="Message-Bold-32px-4" data-name="Message-Bold-32px" d="M189.594,2H64.531A62.421,62.421,0,0,0,2,64.281v87.294a62.421,62.421,0,0,0,62.531,62.281H83.291a14.375,14.375,0,0,1,10,5l18.759,24.887c8.254,11.005,21.761,11.005,30.015,0l18.759-24.887a12.678,12.678,0,0,1,10.005-5h18.759a62.421,62.421,0,0,0,62.531-62.281V64.281A62.421,62.421,0,0,0,189.594,2ZM77.038,127.063a12.506,12.506,0,1,1,12.506-12.506A12.463,12.463,0,0,1,77.038,127.063Zm50.025,0a12.506,12.506,0,1,1,12.506-12.506A12.463,12.463,0,0,1,127.063,127.063Zm50.025,0a12.506,12.506,0,1,1,12.506-12.506A12.463,12.463,0,0,1,177.088,127.063Z" transform="translate(78.94 79)" fill="#fff"/>
    </g>
  </g>
</svg>
